<mxfile host="www.draw.io" modified="2019-11-09T17:34:31.041Z" agent="Mozilla/5.0 (Windows NT 10.0; Win64; x64) AppleWebKit/537.36 (KHTML, like Gecko) Chrome/78.0.3904.87 Safari/537.36" etag="VoZexNqqpLNj1zgR0Qb3" version="12.2.3" type="github" pages="1">
  <diagram id="vaZwh4Lqx1MRy8ItwCyv" name="Page-1">
    <mxGraphModel dx="2313" dy="693" grid="1" gridSize="10" guides="1" tooltips="1" connect="1" arrows="1" fold="1" page="1" pageScale="1" pageWidth="850" pageHeight="1100" math="0" shadow="0">
      <root>
        <mxCell id="0"/>
        <mxCell id="1" parent="0"/>
        <mxCell id="LQej93QZtdUMWk9cprAB-1" value="&lt;font style=&quot;font-size: 24px&quot;&gt;&lt;b&gt;پشتیبانی&lt;/b&gt;&lt;/font&gt;" style="rounded=1;whiteSpace=wrap;html=1;" vertex="1" parent="1">
          <mxGeometry x="-226" y="760" width="120" height="60" as="geometry"/>
        </mxCell>
        <mxCell id="LQej93QZtdUMWk9cprAB-3" value="" style="endArrow=classic;html=1;exitX=1;exitY=0.5;exitDx=0;exitDy=0;entryX=0;entryY=0.5;entryDx=0;entryDy=0;" edge="1" parent="1" source="LQej93QZtdUMWk9cprAB-1" target="LQej93QZtdUMWk9cprAB-7">
          <mxGeometry width="50" height="50" relative="1" as="geometry">
            <mxPoint x="-96" y="820" as="sourcePoint"/>
            <mxPoint x="-26" y="790" as="targetPoint"/>
          </mxGeometry>
        </mxCell>
        <mxCell id="LQej93QZtdUMWk9cprAB-5" style="edgeStyle=orthogonalEdgeStyle;rounded=0;orthogonalLoop=1;jettySize=auto;html=1;exitX=0.5;exitY=1;exitDx=0;exitDy=0;entryX=0;entryY=0.5;entryDx=0;entryDy=0;" edge="1" parent="1" source="LQej93QZtdUMWk9cprAB-4" target="LQej93QZtdUMWk9cprAB-1">
          <mxGeometry relative="1" as="geometry"/>
        </mxCell>
        <mxCell id="LQej93QZtdUMWk9cprAB-4" value="" style="ellipse;whiteSpace=wrap;html=1;aspect=fixed;fillColor=#647687;strokeColor=#314354;fontColor=#ffffff;" vertex="1" parent="1">
          <mxGeometry x="-366" y="660" width="80" height="80" as="geometry"/>
        </mxCell>
        <mxCell id="LQej93QZtdUMWk9cprAB-8" style="edgeStyle=orthogonalEdgeStyle;rounded=0;orthogonalLoop=1;jettySize=auto;html=1;exitX=0.5;exitY=0;exitDx=0;exitDy=0;" edge="1" parent="1" source="LQej93QZtdUMWk9cprAB-7">
          <mxGeometry relative="1" as="geometry">
            <mxPoint x="104" y="660" as="targetPoint"/>
          </mxGeometry>
        </mxCell>
        <mxCell id="LQej93QZtdUMWk9cprAB-13" style="edgeStyle=orthogonalEdgeStyle;rounded=0;orthogonalLoop=1;jettySize=auto;html=1;exitX=0.5;exitY=1;exitDx=0;exitDy=0;entryX=0;entryY=0.5;entryDx=0;entryDy=0;" edge="1" parent="1" source="LQej93QZtdUMWk9cprAB-7" target="LQej93QZtdUMWk9cprAB-12">
          <mxGeometry relative="1" as="geometry"/>
        </mxCell>
        <mxCell id="LQej93QZtdUMWk9cprAB-7" value="" style="rhombus;whiteSpace=wrap;html=1;" vertex="1" parent="1">
          <mxGeometry x="-66" y="750" width="80" height="80" as="geometry"/>
        </mxCell>
        <mxCell id="LQej93QZtdUMWk9cprAB-11" value="" style="edgeStyle=orthogonalEdgeStyle;rounded=0;orthogonalLoop=1;jettySize=auto;html=1;" edge="1" parent="1" source="LQej93QZtdUMWk9cprAB-9" target="LQej93QZtdUMWk9cprAB-10">
          <mxGeometry relative="1" as="geometry"/>
        </mxCell>
        <mxCell id="LQej93QZtdUMWk9cprAB-9" value="&lt;b&gt;&lt;font style=&quot;font-size: 16px&quot;&gt;دیدن تیکت ها و پاسخ و مشاهده یا رد کردن تیکت های نا مربوط&lt;/font&gt;&lt;/b&gt;" style="rounded=1;whiteSpace=wrap;html=1;" vertex="1" parent="1">
          <mxGeometry x="44" y="600" width="120" height="60" as="geometry"/>
        </mxCell>
        <mxCell id="LQej93QZtdUMWk9cprAB-19" style="edgeStyle=orthogonalEdgeStyle;rounded=0;orthogonalLoop=1;jettySize=auto;html=1;exitX=1;exitY=0.5;exitDx=0;exitDy=0;entryX=0.5;entryY=0;entryDx=0;entryDy=0;" edge="1" parent="1" source="LQej93QZtdUMWk9cprAB-10" target="LQej93QZtdUMWk9cprAB-16">
          <mxGeometry relative="1" as="geometry"/>
        </mxCell>
        <mxCell id="LQej93QZtdUMWk9cprAB-10" value="&lt;b&gt;&lt;font style=&quot;font-size: 18px&quot;&gt;&amp;nbsp;زدن دکمه پاسخ یا رد کردن تیکت&lt;/font&gt;&lt;/b&gt;" style="rounded=1;whiteSpace=wrap;html=1;" vertex="1" parent="1">
          <mxGeometry x="244" y="600" width="120" height="60" as="geometry"/>
        </mxCell>
        <mxCell id="LQej93QZtdUMWk9cprAB-15" value="" style="edgeStyle=orthogonalEdgeStyle;rounded=0;orthogonalLoop=1;jettySize=auto;html=1;" edge="1" parent="1" source="LQej93QZtdUMWk9cprAB-12" target="LQej93QZtdUMWk9cprAB-14">
          <mxGeometry relative="1" as="geometry"/>
        </mxCell>
        <mxCell id="LQej93QZtdUMWk9cprAB-12" value="&lt;b&gt;&lt;font style=&quot;font-size: 17px&quot;&gt;وارد کردن پیام تیکت و عنوان&lt;/font&gt;&lt;/b&gt;" style="rounded=1;whiteSpace=wrap;html=1;" vertex="1" parent="1">
          <mxGeometry x="44" y="840" width="120" height="60" as="geometry"/>
        </mxCell>
        <mxCell id="LQej93QZtdUMWk9cprAB-18" style="edgeStyle=orthogonalEdgeStyle;rounded=0;orthogonalLoop=1;jettySize=auto;html=1;exitX=1;exitY=0.5;exitDx=0;exitDy=0;entryX=0.5;entryY=1;entryDx=0;entryDy=0;" edge="1" parent="1" source="LQej93QZtdUMWk9cprAB-14" target="LQej93QZtdUMWk9cprAB-16">
          <mxGeometry relative="1" as="geometry"/>
        </mxCell>
        <mxCell id="LQej93QZtdUMWk9cprAB-14" value="&lt;font size=&quot;1&quot;&gt;&lt;b style=&quot;font-size: 22px&quot;&gt;زدن دکمه ارسال&lt;/b&gt;&lt;/font&gt;" style="rounded=1;whiteSpace=wrap;html=1;" vertex="1" parent="1">
          <mxGeometry x="244" y="840" width="120" height="60" as="geometry"/>
        </mxCell>
        <mxCell id="LQej93QZtdUMWk9cprAB-16" value="" style="ellipse;whiteSpace=wrap;html=1;aspect=fixed;fillColor=#647687;strokeColor=#314354;fontColor=#ffffff;" vertex="1" parent="1">
          <mxGeometry x="470" y="710" width="80" height="80" as="geometry"/>
        </mxCell>
        <mxCell id="LQej93QZtdUMWk9cprAB-17" value="" style="ellipse;whiteSpace=wrap;html=1;aspect=fixed;" vertex="1" parent="1">
          <mxGeometry x="480" y="720" width="60" height="60" as="geometry"/>
        </mxCell>
        <mxCell id="LQej93QZtdUMWk9cprAB-20" value="&lt;b&gt;&lt;font style=&quot;font-size: 18px&quot;&gt;ADMIN&lt;/font&gt;&lt;/b&gt;" style="text;html=1;strokeColor=none;fillColor=none;align=center;verticalAlign=middle;whiteSpace=wrap;rounded=0;strokeWidth=1;" vertex="1" parent="1">
          <mxGeometry x="-39" y="670" width="106" height="40" as="geometry"/>
        </mxCell>
        <mxCell id="LQej93QZtdUMWk9cprAB-21" value="&lt;b&gt;&lt;font style=&quot;font-size: 18px&quot;&gt;NOT ADMIN&lt;br&gt;&lt;/font&gt;&lt;/b&gt;" style="text;html=1;strokeColor=none;fillColor=none;align=center;verticalAlign=middle;whiteSpace=wrap;rounded=0;strokeWidth=1;" vertex="1" parent="1">
          <mxGeometry x="-79" y="870" width="106" height="40" as="geometry"/>
        </mxCell>
      </root>
    </mxGraphModel>
  </diagram>
</mxfile>
